#Comment line ignore any data following # character 
#Hierarchical Translation and Rotation (.htr) file 
[Header]	
#Header keywords are followed by a single value 
FileType HTR		#Single word string
DataType HTRS		#Translation followed by rotation and scale data
FileVersion 1		#integer
NumSegments 84		#integer
NumFrames 2		#integer
DataFrameRate 30		#integer, data frame rate in this file
EulerRotationOrder ZYX
CalibrationUnits mm
RotationUnits Degrees
GlobalAxisofGravity Y
BoneLengthAxis Y
ScaleFactor 1.00
[SegmentNames&Hierarchy]
#CHILD	PARENT
MASTER GLOBAL
root MASTER
chest root
L_mid_tent01 root
R_mid_tent01 root
spine01 root
Bip01_Neck chest
L_humerus chest
R_humerus chest
weapon_bone chest
Bip01_Head Bip01_Neck
eye_left_bone Bip01_Head
eye_right_bone Bip01_Head
L_forearm L_humerus
L_front_hand L_forearm
L_weapon_bone L_forearm
L_front_hand01_01 L_front_hand
L_front_hand02_01 L_front_hand
L_front_hand03_01 L_front_hand
L_front_hand01_02 L_front_hand01_01
L_front_hand02_02 L_front_hand02_01
L_front_hand03_02 L_front_hand03_01
R_forearm R_humerus
R_front_hand R_forearm
R_weapon_bone R_forearm
R_front_hand01_01 R_front_hand
R_front_hand02_01 R_front_hand
R_front_hand03_01 R_front_hand
R_front_hand01_02 R_front_hand01_01
R_front_hand02_02 R_front_hand02_01
R_front_hand03_02 R_front_hand03_01
null_rope01_connect L_mid_tent01
Rope1_Seg01 null_rope01_connect
Rope1_Seg02 Rope1_Seg01
Rope1_Seg03 Rope1_Seg02
Rope1_Seg04 Rope1_Seg03
Rope1_Seg05 Rope1_Seg04
Rope1_Seg06 Rope1_Seg05
Rope1_Seg07 Rope1_Seg06
Rope1_Seg09 Rope1_Seg07
L_mid_hand01 Rope1_Seg09
L_mid_hand02 Rope1_Seg09
L_mid_hand03 Rope1_Seg09
null_rope02_connect R_mid_tent01
Rope2_Seg01 null_rope02_connect
Rope2_Seg02 Rope2_Seg01
Rope2_Seg03 Rope2_Seg02
Rope2_Seg04 Rope2_Seg03
Rope2_Seg05 Rope2_Seg04
Rope2_Seg06 Rope2_Seg05
Rope2_Seg07 Rope2_Seg06
Rope2_Seg09 Rope2_Seg07
R_mid_hand01 Rope2_Seg09
R_mid_hand02 Rope2_Seg09
R_mid_hand03 Rope2_Seg09
spine02 spine01
spine03 spine02
pelvis spine03
null_rope03_connect pelvis
null_rope04_connect pelvis
Rope3_Seg01 null_rope03_connect
Rope3_Seg02 Rope3_Seg01
Rope3_Seg03 Rope3_Seg02
Rope3_Seg04 Rope3_Seg03
Rope3_Seg05 Rope3_Seg04
Rope3_Seg06 Rope3_Seg05
Rope3_Seg07 Rope3_Seg06
Rope3_Seg08 Rope3_Seg07
Rope3_Seg09 Rope3_Seg08
R_rear_hand01 Rope3_Seg09
R_rear_hand02 Rope3_Seg09
R_rear_hand03 Rope3_Seg09
Rope4_Seg01 null_rope04_connect
Rope4_Seg02 Rope4_Seg01
Rope4_Seg03 Rope4_Seg02
Rope4_Seg04 Rope4_Seg03
Rope4_Seg05 Rope4_Seg04
Rope4_Seg06 Rope4_Seg05
Rope4_Seg07 Rope4_Seg06
Rope4_Seg08 Rope4_Seg07
Rope4_Seg09 Rope4_Seg08
L_rear_hand01 Rope4_Seg09
L_rear_hand02 Rope4_Seg09
L_rear_hand03 Rope4_Seg09
[BasePosition]
#SegmentName Tx, Ty, Tz, Rx, Ry, Rz, BoneLength
MASTER 0.000000 0.000000 0.000000 -90.000000 0.000000 0.000000 10.000000 
root 0.000000 0.000000 0.000000 0.000000 0.000000 0.000000 10.000000 
chest 0.000000 0.000000 0.000000 0.000000 0.000000 0.000000 10.000000 
L_mid_tent01 0.000000 0.000000 0.000000 0.000000 0.000000 0.000000 10.000000 
R_mid_tent01 0.000000 0.000000 0.000000 0.000000 0.000000 0.000000 10.000000 
spine01 0.000000 0.000000 0.000000 0.000000 0.000000 0.000000 10.000000 
Bip01_Neck 0.000000 0.000000 0.000000 0.000000 0.000000 0.000000 10.000000 
L_humerus 0.000000 0.000000 0.000000 0.000000 0.000000 0.000000 10.000000 
R_humerus 0.000000 0.000000 0.000000 0.000000 0.000000 0.000000 10.000000 
weapon_bone 0.000000 0.000000 0.000000 0.000000 0.000000 0.000000 10.000000 
Bip01_Head 0.000000 0.000000 0.000000 0.000000 0.000000 0.000000 10.000000 
eye_left_bone 0.000000 0.000000 0.000000 0.000000 0.000000 0.000000 10.000000 
eye_right_bone 0.000000 0.000000 0.000000 0.000000 0.000000 0.000000 10.000000 
L_forearm 0.000000 0.000000 0.000000 0.000000 0.000000 0.000000 10.000000 
L_front_hand 0.000000 0.000000 0.000000 0.000000 0.000000 0.000000 10.000000 
L_weapon_bone 0.000000 0.000000 0.000000 0.000000 0.000000 0.000000 10.000000 
L_front_hand01_01 0.000000 0.000000 0.000000 0.000000 0.000000 0.000000 10.000000 
L_front_hand02_01 0.000000 0.000000 0.000000 0.000000 0.000000 0.000000 10.000000 
L_front_hand03_01 0.000000 0.000000 0.000000 0.000000 0.000000 0.000000 10.000000 
L_front_hand01_02 0.000000 0.000000 0.000000 0.000000 0.000000 0.000000 10.000000 
L_front_hand02_02 0.000000 0.000000 0.000000 0.000000 0.000000 0.000000 10.000000 
L_front_hand03_02 0.000000 0.000000 0.000000 0.000000 0.000000 0.000000 10.000000 
R_forearm 0.000000 0.000000 0.000000 0.000000 0.000000 0.000000 10.000000 
R_front_hand 0.000000 0.000000 0.000000 0.000000 0.000000 0.000000 10.000000 
R_weapon_bone 0.000000 0.000000 0.000000 0.000000 0.000000 0.000000 10.000000 
R_front_hand01_01 0.000000 0.000000 0.000000 0.000000 0.000000 0.000000 10.000000 
R_front_hand02_01 0.000000 0.000000 0.000000 0.000000 0.000000 0.000000 10.000000 
R_front_hand03_01 0.000000 0.000000 0.000000 0.000000 0.000000 0.000000 10.000000 
R_front_hand01_02 0.000000 0.000000 0.000000 0.000000 0.000000 0.000000 10.000000 
R_front_hand02_02 0.000000 0.000000 0.000000 0.000000 0.000000 0.000000 10.000000 
R_front_hand03_02 0.000000 0.000000 0.000000 0.000000 0.000000 0.000000 10.000000 
null_rope01_connect 0.000000 0.000000 0.000000 0.000000 0.000000 0.000000 10.000000 
Rope1_Seg01 0.000000 0.000000 0.000000 0.000000 0.000000 0.000000 10.000000 
Rope1_Seg02 0.000000 0.000000 0.000000 0.000000 0.000000 0.000000 10.000000 
Rope1_Seg03 0.000000 0.000000 0.000000 0.000000 0.000000 0.000000 10.000000 
Rope1_Seg04 0.000000 0.000000 0.000000 0.000000 0.000000 0.000000 10.000000 
Rope1_Seg05 0.000000 0.000000 0.000000 0.000000 0.000000 0.000000 10.000000 
Rope1_Seg06 0.000000 0.000000 0.000000 0.000000 0.000000 0.000000 10.000000 
Rope1_Seg07 0.000000 0.000000 0.000000 0.000000 0.000000 0.000000 10.000000 
Rope1_Seg09 0.000000 0.000000 0.000000 0.000000 0.000000 0.000000 10.000000 
L_mid_hand01 0.000000 0.000000 0.000000 0.000000 0.000000 0.000000 10.000000 
L_mid_hand02 0.000000 0.000000 0.000000 0.000000 0.000000 0.000000 10.000000 
L_mid_hand03 0.000000 0.000000 0.000000 0.000000 0.000000 0.000000 10.000000 
null_rope02_connect 0.000000 0.000000 0.000000 0.000000 0.000000 0.000000 10.000000 
Rope2_Seg01 0.000000 0.000000 0.000000 0.000000 0.000000 0.000000 10.000000 
Rope2_Seg02 0.000000 0.000000 0.000000 0.000000 0.000000 0.000000 10.000000 
Rope2_Seg03 0.000000 0.000000 0.000000 0.000000 0.000000 0.000000 10.000000 
Rope2_Seg04 0.000000 0.000000 0.000000 0.000000 0.000000 0.000000 10.000000 
Rope2_Seg05 0.000000 0.000000 0.000000 0.000000 0.000000 0.000000 10.000000 
Rope2_Seg06 0.000000 0.000000 0.000000 0.000000 0.000000 0.000000 10.000000 
Rope2_Seg07 0.000000 0.000000 0.000000 0.000000 0.000000 0.000000 10.000000 
Rope2_Seg09 0.000000 0.000000 0.000000 0.000000 0.000000 0.000000 10.000000 
R_mid_hand01 0.000000 0.000000 0.000000 0.000000 0.000000 0.000000 10.000000 
R_mid_hand02 0.000000 0.000000 0.000000 0.000000 0.000000 0.000000 10.000000 
R_mid_hand03 0.000000 0.000000 0.000000 0.000000 0.000000 0.000000 10.000000 
spine02 0.000000 0.000000 0.000000 0.000000 0.000000 0.000000 10.000000 
spine03 0.000000 0.000000 0.000000 0.000000 0.000000 0.000000 10.000000 
pelvis 0.000000 0.000000 0.000000 0.000000 0.000000 0.000000 10.000000 
null_rope03_connect 0.000000 0.000000 0.000000 0.000000 0.000000 0.000000 10.000000 
null_rope04_connect 0.000000 0.000000 0.000000 0.000000 0.000000 0.000000 10.000000 
Rope3_Seg01 0.000000 0.000000 0.000000 0.000000 0.000000 0.000000 10.000000 
Rope3_Seg02 0.000000 0.000000 0.000000 0.000000 0.000000 0.000000 10.000000 
Rope3_Seg03 0.000000 0.000000 0.000000 0.000000 0.000000 0.000000 10.000000 
Rope3_Seg04 0.000000 0.000000 0.000000 0.000000 0.000000 0.000000 10.000000 
Rope3_Seg05 0.000000 0.000000 0.000000 0.000000 0.000000 0.000000 10.000000 
Rope3_Seg06 0.000000 0.000000 0.000000 0.000000 0.000000 0.000000 10.000000 
Rope3_Seg07 0.000000 0.000000 0.000000 0.000000 0.000000 0.000000 10.000000 
Rope3_Seg08 0.000000 0.000000 0.000000 0.000000 0.000000 0.000000 10.000000 
Rope3_Seg09 0.000000 0.000000 0.000000 0.000000 0.000000 0.000000 10.000000 
R_rear_hand01 0.000000 0.000000 0.000000 0.000000 0.000000 0.000000 10.000000 
R_rear_hand02 0.000000 0.000000 0.000000 0.000000 0.000000 0.000000 10.000000 
R_rear_hand03 0.000000 0.000000 0.000000 0.000000 0.000000 0.000000 10.000000 
Rope4_Seg01 0.000000 0.000000 0.000000 0.000000 0.000000 0.000000 10.000000 
Rope4_Seg02 0.000000 0.000000 0.000000 0.000000 0.000000 0.000000 10.000000 
Rope4_Seg03 0.000000 0.000000 0.000000 0.000000 0.000000 0.000000 10.000000 
Rope4_Seg04 0.000000 0.000000 0.000000 0.000000 0.000000 0.000000 10.000000 
Rope4_Seg05 0.000000 0.000000 0.000000 0.000000 0.000000 0.000000 10.000000 
Rope4_Seg06 0.000000 0.000000 0.000000 0.000000 0.000000 0.000000 10.000000 
Rope4_Seg07 0.000000 0.000000 0.000000 0.000000 0.000000 0.000000 10.000000 
Rope4_Seg08 0.000000 0.000000 0.000000 0.000000 0.000000 0.000000 10.000000 
Rope4_Seg09 0.000000 0.000000 0.000000 0.000000 0.000000 0.000000 10.000000 
L_rear_hand01 0.000000 0.000000 0.000000 0.000000 0.000000 0.000000 10.000000 
L_rear_hand02 0.000000 0.000000 0.000000 0.000000 0.000000 0.000000 10.000000 
L_rear_hand03 0.000000 0.000000 0.000000 0.000000 0.000000 0.000000 10.000000 
#Beginning of Data. Separated by tabs
#Fr	Tx	Ty	Tz	Rx	Ry	Rz	SF
[MASTER]
45 -2376.023682 11452.257813 1200.513672 0.001660 0.001660 0.001660 11757.590820
46 -2138.821533 11689.885742 1035.412842 0.001660 0.001660 0.001660 11928.959961
[root]
45 22.611374 -85.672600 1004.091614 -112.070015 -19.432009 -98.121346 1007.993591
46 -4.712294 -85.672569 1004.092224 -112.958824 -20.023508 -100.399895 1007.751526
[chest]
45 -84.512650 -34.090519 0.000000 -35.790489 0.173586 177.790466 91.129311
46 -84.512650 -34.090519 0.000000 -31.846481 0.234563 177.817444 91.129311
[L_mid_tent01]
45 27.298767 22.179258 -249.918701 -8.608615 10.821085 -37.606251 252.381653
46 27.298759 22.179258 -249.918701 -6.045091 7.470052 -28.691542 252.381653
[R_mid_tent01]
45 23.228794 24.509907 226.238495 161.755768 -18.033979 84.104507 228.744751
46 23.228794 24.509907 226.238495 161.632935 -23.141975 81.054878 228.744751
[spine01]
45 -0.361383 -0.195265 0.000000 0.001715 0.001603 3.864984 0.410763
46 -0.361383 -0.195265 0.000000 0.001721 0.001596 4.345026 0.410763
[Bip01_Neck]
45 165.484543 71.581718 0.000119 176.643677 -1.657967 43.431911 180.302734
46 165.484543 71.581718 0.000119 176.643677 -1.657967 43.431911 180.302734
[L_humerus]
45 -13.983130 -135.272980 -120.471481 168.433212 9.256161 -100.130692 181.680161
46 -13.983130 -135.272980 -120.471481 160.849121 21.402637 -109.759727 181.680161
[R_humerus]
45 -13.983309 -135.273102 125.287651 -177.005234 -5.301647 -85.821144 184.909012
46 -13.983309 -135.273102 125.287651 -176.875885 -17.416578 -86.475807 184.909012
[weapon_bone]
45 235.964890 -300.705902 0.000000 0.000000 -89.951546 -128.212341 382.234833
46 235.964890 -300.705902 0.000000 0.000000 -89.951546 -128.212341 382.234833
[Bip01_Head]
45 213.425003 185.773056 11.037436 -13.294475 6.151718 -43.834988 283.167267
46 213.428818 185.762878 11.168591 -16.321463 6.150352 -43.832668 283.168579
[eye_left_bone]
45 -24.626970 125.451866 -64.772606 0.000000 -90.000000 -99.840431 143.318359
46 -24.626970 125.451866 -64.772606 0.000000 -90.000000 -99.840431 143.318359
[eye_right_bone]
45 -24.626970 125.451866 64.327362 0.000000 -89.965736 80.156380 143.117676
46 -24.626970 125.451866 64.327362 0.000000 -89.965736 80.156380 143.117676
[L_forearm]
45 322.776093 0.000000 -0.000119 0.000418 -0.002310 -110.511543 322.776093
46 322.776093 0.000000 -0.000119 0.000417 -0.002310 -110.453194 322.776093
[L_front_hand]
45 241.149185 -0.042021 -3.300071 -178.667953 -1.835447 -27.422350 241.171753
46 241.149185 -0.042021 -3.300071 -178.667953 -1.835447 -27.422350 241.171753
[L_weapon_bone]
45 156.183838 0.000000 0.000000 0.000014 0.000007 0.000001 156.183838
46 156.183838 0.000000 0.000000 0.000014 0.000007 0.000001 156.183838
[L_front_hand01_01]
45 86.095154 20.947098 -0.655860 -0.366594 -0.477154 75.385574 88.609184
46 86.095154 20.947098 -0.655860 -0.366594 -0.477154 75.385582 88.609184
[L_front_hand02_01]
45 86.935165 -11.437475 24.513514 154.399811 -59.883842 -61.369587 91.046425
46 86.935165 -11.437475 24.513514 154.399796 -59.883835 -61.369587 91.046425
[L_front_hand03_01]
45 86.637497 -14.123976 -20.424902 -153.913879 58.118130 -62.702892 90.126129
46 86.637497 -14.123976 -20.424902 -153.913849 58.118130 -62.702866 90.126129
[L_front_hand01_02]
45 71.020905 -0.000179 0.000030 0.000334 -0.002323 -106.379684 71.020905
46 71.020905 -0.000179 0.000030 0.000334 -0.002323 -106.379684 71.020905
[L_front_hand02_02]
45 71.020927 -0.000119 0.000060 0.000334 -0.002323 -106.379684 71.020927
46 71.020927 -0.000119 0.000060 0.000334 -0.002323 -106.379684 71.020927
[L_front_hand03_02]
45 71.020905 -0.000060 0.000060 0.000334 -0.002323 -106.379684 71.020905
46 71.020905 -0.000060 0.000060 0.000334 -0.002323 -106.379684 71.020905
[R_forearm]
45 322.776428 -0.000060 0.000030 0.201465 0.067109 -109.170837 322.776428
46 322.776428 -0.000060 0.000030 0.201499 0.067007 -109.112564 322.776428
[R_front_hand]
45 238.847015 -0.006795 2.210259 -2.635298 -10.645461 -26.312506 238.857239
46 238.847015 -0.006795 2.210259 -2.635298 -10.645461 -26.312506 238.857239
[R_weapon_bone]
45 155.664093 0.002503 -0.000030 0.003487 0.001180 -90.988930 155.664078
46 155.664093 0.002503 -0.000030 0.003487 0.001180 -90.988930 155.664078
[R_front_hand01_01]
45 87.624611 14.231146 22.918642 -154.633499 -59.950619 61.746044 91.683487
46 87.624611 14.231146 22.918642 -154.633499 -59.950619 61.746044 91.683487
[R_front_hand02_01]
45 89.356956 14.367283 -19.491137 154.602661 58.302849 63.744389 92.579636
46 89.356956 14.367283 -19.491137 154.602661 58.302849 63.744389 92.579636
[R_front_hand03_01]
45 87.286232 -22.307278 -0.143439 0.162155 -0.423168 -75.767921 90.091743
46 87.286232 -22.307278 -0.143439 0.162155 -0.423168 -75.767921 90.091743
[R_front_hand01_02]
45 71.020905 0.000060 0.000119 0.002323 -0.000334 106.381714 71.020905
46 71.020905 0.000060 0.000119 0.002323 -0.000334 106.381714 71.020905
[R_front_hand02_02]
45 71.020844 -0.000030 -0.000119 0.002323 -0.000334 106.381714 71.020836
46 71.020844 -0.000030 -0.000119 0.002323 -0.000334 106.381714 71.020836
[R_front_hand03_02]
45 71.020905 0.000000 0.000030 0.002323 -0.000334 106.381714 71.020905
46 71.020905 0.000000 0.000030 0.002323 -0.000334 106.381714 71.020905
[null_rope01_connect]
45 328.732483 0.000000 -0.000238 -119.756744 -57.126888 -92.487076 328.732483
46 328.732483 0.000000 -0.000238 -126.243614 -55.898048 -95.362656 328.732483
[Rope1_Seg01]
45 0.000038 -0.000781 0.000000 78.483215 -44.128113 27.696304 0.000782
46 0.000038 -0.000798 0.000000 71.206215 -43.746525 35.935680 0.000799
[Rope1_Seg02]
45 139.999863 -0.000179 0.000000 -1.577985 1.261714 11.335130 139.999863
46 139.999863 -0.000179 0.000000 -1.713004 0.447245 9.532723 139.999863
[Rope1_Seg03]
45 139.999924 0.000060 -0.000060 0.139986 1.298122 20.419415 139.999924
46 139.999924 0.000060 -0.000060 -0.854246 0.407416 20.485062 139.999924
[Rope1_Seg04]
45 139.999924 -0.000060 -0.000119 6.664345 1.352724 28.241766 139.999924
46 139.999924 -0.000060 -0.000119 9.166713 0.202421 38.525696 139.999924
[Rope1_Seg05]
45 139.999832 0.000119 -0.000060 10.980536 7.266012 17.111084 139.999832
46 139.999832 0.000119 -0.000060 10.745536 1.680640 17.715670 139.999832
[Rope1_Seg06]
45 139.999954 0.000119 -0.000060 9.371880 7.816405 10.643312 139.999954
46 139.999954 0.000119 -0.000060 7.200710 2.234929 8.078832 139.999954
[Rope1_Seg07]
45 139.999985 0.000060 0.000000 6.288754 5.758805 6.505617 139.999985
46 139.999985 0.000060 0.000000 5.259219 2.086158 4.783073 139.999985
[Rope1_Seg09]
45 121.602913 0.000119 -0.000089 -89.793175 -1.359789 0.847147 121.602913
46 121.602913 0.000119 -0.000089 -89.793175 -1.359789 0.847147 121.602913
[L_mid_hand01]
45 103.859421 1.038730 8.195221 130.544373 -67.584534 -38.866943 104.187431
46 103.859421 1.038730 8.195221 130.544373 -67.584534 -38.866943 104.187431
[L_mid_hand02]
45 105.572853 -4.139662 -10.864139 -168.923172 43.409309 -73.498886 106.211075
46 105.572853 -4.139662 -10.864139 -168.923172 43.409309 -73.498886 106.211075
[L_mid_hand03]
45 104.641464 17.579376 -3.913581 -6.012627 17.808174 74.893669 106.179977
46 104.641464 17.579376 -3.913581 -6.012627 17.808174 74.893669 106.179977
[null_rope02_connect]
45 328.732849 0.000179 -0.000119 -36.873135 75.070679 119.639534 328.732849
46 328.732849 0.000179 -0.000119 -42.943512 76.581299 109.637238 328.732849
[Rope2_Seg01]
45 0.000071 -0.000725 0.000000 -18.859425 28.733332 -81.570869 0.000728
46 0.000071 -0.000744 0.000000 -23.050358 29.957258 -87.329262 0.000747
[Rope2_Seg02]
45 139.999741 -0.000060 -0.000119 -8.599174 6.692252 -25.032530 139.999756
46 139.999741 -0.000060 -0.000119 -7.719389 7.581944 -28.282909 139.999756
[Rope2_Seg03]
45 140.000107 0.000030 0.000000 -3.078538 13.356294 -27.234272 140.000107
46 140.000107 0.000030 0.000000 -0.936400 13.984049 -27.479351 140.000107
[Rope2_Seg04]
45 139.999802 0.000000 -0.000060 3.176518 6.322886 -15.765221 139.999802
46 139.999802 0.000000 -0.000060 4.511517 2.363738 -13.107825 139.999802
[Rope2_Seg05]
45 139.999985 -0.000060 0.000119 3.696606 -5.316490 -6.508801 139.999985
46 139.999985 -0.000060 0.000119 2.549477 -8.186110 -2.611123 139.999985
[Rope2_Seg06]
45 139.999893 -0.000030 -0.000119 2.208941 -5.609343 -3.791837 139.999893
46 139.999893 -0.000030 -0.000119 1.123488 -5.333107 -1.441987 139.999893
[Rope2_Seg07]
45 139.999893 0.000060 -0.000060 1.229594 -2.389494 -3.116229 139.999893
46 139.999893 0.000060 -0.000060 0.618456 -2.448451 -1.545123 139.999893
[Rope2_Seg09]
45 121.338966 0.000089 -0.000060 33.793236 -1.359788 -0.847141 121.338966
46 121.338966 0.000089 -0.000060 33.793236 -1.359788 -0.847141 121.338966
[R_mid_hand01]
45 104.680779 11.144459 -10.335981 -16.212067 45.237247 70.462852 105.778534
46 104.680779 11.144459 -10.335981 -16.212059 45.237240 70.462852 105.778534
[R_mid_hand02]
45 104.070427 2.443552 8.231699 49.067387 -67.749794 39.286469 104.424065
46 104.070427 2.443552 8.231699 49.067387 -67.749794 39.286457 104.424065
[R_mid_hand03]
45 106.028137 -11.221827 -5.996406 -177.101105 15.551026 -76.585571 106.788818
46 106.028137 -11.221827 -5.996406 -177.101105 15.551026 -76.585571 106.788818
[spine02]
45 129.756927 0.001550 0.000119 0.469463 -4.032669 -14.508133 129.756927
46 129.756927 0.001550 0.000119 0.463594 -4.033386 -14.422740 129.756927
[spine03]
45 78.613579 0.081730 -4.898993 1.963318 3.798987 17.461058 78.766121
46 78.613564 0.081733 -4.898992 1.960503 3.800650 17.410290 78.766106
[pelvis]
45 169.435242 0.051022 0.000000 -56.407669 -0.267337 -10.865589 169.435257
46 169.435242 0.051022 0.000000 -55.221172 -0.350793 -11.028660 169.435257
[null_rope03_connect]
45 -1.257226 -2.466202 137.391083 -155.813782 -9.541266 -95.816177 137.418976
46 -1.257226 -2.466202 137.391083 -155.237122 -8.844320 -97.915184 137.418976
[null_rope04_connect]
45 -1.259640 -2.480268 -137.844437 -155.813782 -9.541266 -95.816177 137.872513
46 -1.259640 -2.480268 -137.844437 -155.237122 -8.844320 -97.915184 137.872513
[Rope3_Seg01]
45 0.000000 0.000000 0.000000 12.609463 38.453732 -90.602127 0.000000
46 0.000000 0.000000 0.000000 8.723207 38.604927 -96.732399 0.000000
[Rope3_Seg02]
45 139.999924 -0.000119 0.000060 -0.135049 1.079123 -6.095843 139.999924
46 139.999924 -0.000119 0.000060 -0.426943 0.905482 -5.974101 139.999924
[Rope3_Seg03]
45 139.999924 -0.000119 0.000119 -1.116970 1.697595 -10.436601 139.999924
46 139.999924 -0.000119 0.000119 -1.632472 1.542904 -10.313276 139.999924
[Rope3_Seg04]
45 139.999924 0.000119 0.000000 -3.582906 -0.262572 -18.071291 139.999924
46 139.999924 0.000119 0.000000 -6.522170 1.928419 -20.478863 139.999924
[Rope3_Seg05]
45 139.999924 -0.000238 0.000060 -32.347546 19.122213 -36.709572 139.999924
46 139.999924 -0.000238 0.000060 -28.024624 13.973388 -30.066559 139.999924
[Rope3_Seg06]
45 139.999893 -0.000119 -0.000060 -12.645187 14.991499 -8.196120 139.999893
46 139.999893 -0.000119 -0.000060 -11.484183 10.199667 -7.257489 139.999893
[Rope3_Seg07]
45 139.999771 0.000060 -0.000119 -3.790395 6.251312 -2.386071 139.999771
46 139.999771 0.000060 -0.000119 -4.794646 5.333721 -2.783966 139.999771
[Rope3_Seg08]
45 139.999985 -0.000060 0.000000 -1.431077 3.189958 -0.988221 139.999985
46 139.999985 -0.000060 0.000000 -2.082499 2.893459 -1.218722 139.999985
[Rope3_Seg09]
45 90.185997 -0.000179 -0.000060 89.793228 -1.359877 -0.847183 90.185997
46 90.185997 -0.000179 -0.000060 89.793228 -1.359877 -0.847183 90.185997
[R_rear_hand01]
45 103.366196 -6.073594 -10.757982 -177.714203 24.565960 -73.910950 104.101845
46 103.366196 -6.073594 -10.757982 -177.714203 24.565960 -73.910950 104.101845
[R_rear_hand02]
45 100.509819 12.039542 -7.992327 -12.874834 36.868492 72.167213 101.543350
46 100.509819 12.039542 -7.992327 -12.874834 36.868492 72.167213 101.543350
[R_rear_hand03]
45 101.539970 5.215704 5.435467 71.484581 -71.816628 21.513813 101.819031
46 101.539970 5.215704 5.435467 71.484627 -71.816643 21.513803 101.819031
[Rope4_Seg01]
45 -0.000002 -0.000781 -0.000153 -127.728188 -43.481453 -66.993942 0.000796
46 -0.000003 -0.000798 -0.000153 -129.497055 -45.771774 -66.831337 0.000813
[Rope4_Seg02]
45 139.999985 0.000060 0.000119 -1.928190 10.010047 0.810982 139.999985
46 139.999985 0.000060 0.000119 -1.430075 10.385060 1.679577 139.999985
[Rope4_Seg03]
45 139.999924 0.000000 -0.000238 -1.345466 14.968616 1.745596 139.999924
46 139.999924 0.000000 -0.000238 -0.780017 14.629714 2.769013 139.999924
[Rope4_Seg04]
45 139.999985 0.000000 0.000119 -0.103067 16.476807 1.830816 139.999985
46 139.999985 0.000000 0.000119 -0.085167 15.087617 1.566895 139.999985
[Rope4_Seg05]
45 139.999802 -0.000060 -0.000119 2.620507 23.169741 4.417994 139.999802
46 139.999802 -0.000060 -0.000119 1.656663 18.499283 5.414964 139.999802
[Rope4_Seg06]
45 139.999924 0.000000 0.000060 7.750667 26.154160 5.290889 139.999924
46 139.999924 0.000000 0.000060 3.126309 23.587185 10.299290 139.999924
[Rope4_Seg07]
45 139.999802 0.000000 0.000000 9.473175 13.472781 0.833448 139.999802
46 139.999802 0.000000 0.000000 2.877429 14.628081 5.560212 139.999802
[Rope4_Seg08]
45 139.999924 0.000000 0.000119 6.995982 6.484011 -0.693325 139.999924
46 139.999924 0.000000 0.000119 1.235069 7.125627 2.219532 139.999924
[Rope4_Seg09]
45 90.185791 0.000060 0.000060 -135.617828 2.228885 0.850567 90.185791
46 90.185791 0.000060 0.000060 -135.617828 2.228885 0.850567 90.185791
[L_rear_hand01]
45 101.696655 -8.392275 -7.654577 -12.874829 -36.868488 107.832764 102.329041
46 101.696655 -8.392275 -7.654577 -12.874829 -36.868488 107.832764 102.329041
[L_rear_hand02]
45 102.726799 -1.568258 5.773216 71.484581 71.816628 158.486160 102.900848
46 102.726799 -1.568258 5.773216 71.484581 71.816628 158.486160 102.900848
[L_rear_hand03]
45 104.552910 9.721220 -10.420293 -177.714203 -24.565960 -106.089035 105.519653
46 104.552910 9.721220 -10.420293 -177.714203 -24.565960 -106.089035 105.519653
